<?xml version="1.0" encoding="utf-8"?>
<!-- Generator: Adobe Illustrator 28.0.0, SVG Export Plug-In . SVG Version: 6.00 Build 0)  -->
<svg version="1.1" id="Layer_1" xmlns="http://www.w3.org/2000/svg" xmlns:xlink="http://www.w3.org/1999/xlink" x="0px" y="0px"
	 viewBox="0 0 16 16" style="enable-background:new 0 0 16 16;" xml:space="preserve">
<style type="text/css">
	.st0{fill:#EAEAEA;}
	.st1{fill:#C3C3C3;}
</style>
<path class="st0" d="M-1410,593.1c-0.6,0.9-1.9,1.7-2.3,1.2c-0.8-1.2,0.7-1,1.3-1.1C-1410.7,593-1410.4,593.1-1410,593.1z"/>
<g>
	<path d="M15.9,8.1c0,0.3-0.1,0.6-0.3,0.8c-0.4,0.4-0.8,0.8-1.3,1.2c-0.4,0.4-0.9,0.8-1.3,1.3c-0.4,0.4-0.9,0.9-1.3,1.3
		c-0.1,0.1-0.3,0.3-0.4,0.3c-0.5,0.2-1,0.1-1.4-0.2c-0.4-0.4-0.8-0.8-1.2-1.3c-0.4-0.5-0.9-0.9-1.3-1.4C6.9,9.7,6.4,9.2,6,8.8
		C5.8,8.6,5.6,8.4,5.6,8.1c0-0.3,0-0.6,0.2-0.9C5.9,7.1,6,7,6.1,6.9c0.5-0.5,1-1,1.5-1.5c0.5-0.5,1.1-1,1.6-1.6
		C9.5,3.6,9.8,3.3,10,3.1c0.3-0.3,0.6-0.3,1-0.3c0.2,0.1,0.4,0.2,0.6,0.3c0.5,0.5,1,1,1.5,1.5C13.6,5.2,14,5.6,14.4,6
		c0.4,0.4,0.8,0.8,1.2,1.2C15.8,7.5,15.9,7.8,15.9,8.1z M10.7,12.7c0.2,0,0.3-0.1,0.5-0.2c0.6-0.6,1.2-1.2,1.8-1.8
		c0.3-0.3,0.7-0.7,1-1c0.4-0.4,0.8-0.8,1.2-1.1c0.3-0.3,0.3-0.7,0-1c-0.1-0.1-0.2-0.2-0.2-0.2c-0.8-0.8-1.6-1.6-2.3-2.4
		c-0.2-0.2-0.4-0.4-0.6-0.6c-0.3-0.3-0.6-0.6-0.8-0.9c-0.2-0.2-0.7-0.2-0.9,0C10.2,3.6,10,3.8,9.9,3.9c-0.3,0.3-0.7,0.7-1,1
		c-0.5,0.5-1,1-1.6,1.5c-0.3,0.3-0.7,0.6-1,1C6,7.7,6,8.1,6.3,8.4c0.1,0.2,0.3,0.3,0.4,0.5c0.5,0.5,0.9,0.9,1.4,1.4
		c0.3,0.3,0.6,0.7,1,1c0.4,0.4,0.8,0.8,1.2,1.2C10.4,12.6,10.5,12.7,10.7,12.7z"/>
	<path d="M0.1,7.9c0-0.3,0.1-0.6,0.3-0.8C0.9,6.6,1.5,6,2,5.5c0.5-0.5,1-1,1.5-1.4c0.3-0.3,0.7-0.6,1-1c0.3-0.3,0.6-0.3,1-0.3
		C5.7,2.9,6,3,6.2,3.2c0.2,0.2,0.4,0.4,0.6,0.7c0.3,0.3,0.6,0.7,1,1c0,0,0,0,0,0.1C7.7,5,7.6,5.1,7.5,5.2c0,0,0,0-0.1,0
		c-0.5-0.5-1-1.1-1.6-1.6C5.7,3.5,5.6,3.4,5.5,3.3C5.2,3.3,5,3.3,4.8,3.5C4.2,4.1,3.5,4.7,2.9,5.3C2.5,5.7,2,6.2,1.6,6.6
		C1.3,6.9,1.1,7.1,0.8,7.4c-0.3,0.3-0.3,0.7,0,1C1,8.6,1.1,8.8,1.3,9c0.6,0.7,1.3,1.3,1.9,2c0.3,0.3,0.7,0.7,1,1
		c0.2,0.2,0.3,0.3,0.5,0.5c0.3,0.3,0.7,0.3,1,0c0.5-0.5,1-1,1.5-1.5c0.1-0.1,0.2-0.2,0.3-0.3c0,0,0,0,0.1,0c0.1,0.1,0.2,0.2,0.3,0.3
		c0,0,0,0,0,0.1c-0.3,0.3-0.6,0.6-1,0.9c-0.2,0.2-0.4,0.4-0.6,0.6C6.1,12.7,6,12.9,5.9,13c-0.3,0.2-0.5,0.2-0.8,0.2
		c-0.3,0-0.5-0.2-0.7-0.4c-0.3-0.4-0.7-0.7-1-1.1c-0.3-0.3-0.6-0.6-0.9-0.9c-0.6-0.6-1.2-1.3-1.9-1.9C0.4,8.8,0.3,8.7,0.2,8.5
		C0.1,8.3,0.1,8.1,0.1,7.9z"/>
	<path d="M2.7,7.9c0-0.3,0.1-0.6,0.4-0.8c0.5-0.5,1-1,1.5-1.5C5.1,5.1,5.5,4.7,6,4.2c0,0,0.1,0,0.1,0c0.1,0.1,0.2,0.2,0.3,0.3
		c0,0,0,0,0,0.1C5.9,5,5.5,5.4,5,5.9C4.5,6.3,4.1,6.8,3.6,7.2C3.5,7.3,3.4,7.4,3.4,7.5c-0.2,0.3-0.2,0.6,0,0.9
		c0.4,0.4,0.8,0.8,1.2,1.3c0.6,0.6,1.1,1.2,1.7,1.7c0,0,0,0,0.1,0.1c0,0,0,0.1,0,0.1c-0.1,0.1-0.2,0.2-0.3,0.3c0,0,0,0-0.1,0
		c-0.5-0.5-0.9-1-1.4-1.5c-0.3-0.4-0.7-0.7-1-1.1C3.4,9.1,3.2,8.9,3,8.6C2.8,8.4,2.7,8.2,2.7,7.9z"/>
	<path d="M7.8,13.2c-0.3,0-0.6-0.1-0.8-0.3c-0.1-0.1-0.2-0.2-0.3-0.3c0,0,0,0,0-0.1c0.1-0.1,0.2-0.2,0.3-0.3c0,0,0.1,0,0.1,0
		c0.1,0.1,0.2,0.2,0.2,0.3c0.3,0.3,0.7,0.3,1,0c0.1-0.1,0.3-0.3,0.4-0.4c0,0,0.1,0,0.1,0c0.1,0.1,0.2,0.2,0.3,0.3c0,0,0,0,0,0.1
		c-0.2,0.2-0.3,0.3-0.5,0.5C8.4,13.1,8.2,13.2,7.8,13.2z"/>
	<path d="M7.9,2.8c0.3,0,0.6,0.1,0.8,0.3C8.9,3.3,9,3.4,9.1,3.5c0,0,0,0.1,0,0.1C9,3.7,8.9,3.8,8.8,3.9c0,0,0,0-0.1,0
		C8.7,3.8,8.5,3.6,8.4,3.5c-0.3-0.3-0.7-0.3-1,0C7.3,3.6,7.2,3.7,7.1,3.8c0,0,0,0-0.1,0C7,3.7,6.9,3.6,6.8,3.5c0,0,0,0,0-0.1
		c0.1-0.1,0.3-0.3,0.4-0.4C7.4,2.9,7.6,2.8,7.9,2.8z"/>
	<polygon points="4.2,3 4.2,3 4.2,3 4.2,3 	"/>
</g>
<path class="st1" d="M-2189.9,106.5c0.3-0.4,0.7-0.8,1-1.2C-2189.2,105.7-2189.5,106.1-2189.9,106.5z"/>
</svg>
